<?xml version="1.0" encoding="UTF-8"?><svg id="Layer_1" xmlns="http://www.w3.org/2000/svg" viewBox="0 0 305 205"><polygon points="102.38 2.5 2.5 110.58 52.44 98.96 102.38 2.5" style="fill:none; stroke:#000; stroke-linejoin:round; stroke-width:5px;"/><polygon points="102.38 202.5 102.38 110.58 52.44 98.96 2.5 110.58 102.38 202.5" style="fill:none; stroke:#000; stroke-linejoin:round; stroke-width:5px;"/><polygon points="102.38 2.5 202.25 110.58 152.31 98.96 102.38 2.5" style="fill:none; stroke:#000; stroke-linejoin:round; stroke-width:5px;"/><polygon points="102.38 202.5 102.38 110.58 152.31 98.96 202.25 110.58 102.38 202.5" style="fill:none; stroke:#000; stroke-linejoin:round; stroke-width:5px;"/><polygon points="202.62 2.5 152.51 56.73 166.63 72.03 202.62 2.5" style="fill:none; stroke:#000; stroke-linejoin:round; stroke-width:5px;"/><polygon points="202.62 202.5 202.62 110.58 152.48 156.35 202.62 202.5" style="fill:none; stroke:#000; stroke-linejoin:round; stroke-width:5px;"/><polygon points="202.62 2.5 302.5 110.58 252.56 98.96 202.62 2.5" style="fill:none; stroke:#000; stroke-linejoin:round; stroke-width:5px;"/><polygon points="202.62 202.5 202.62 110.58 252.56 98.96 302.5 110.58 202.62 202.5" style="fill:none; stroke:#000; stroke-linejoin:round; stroke-width:5px;"/></svg>